<mxfile host="app.diagrams.net" modified="2023-05-30T17:12:51.105Z" agent="Mozilla/5.0 (Windows NT 10.0; Win64; x64) AppleWebKit/537.36 (KHTML, like Gecko) Chrome/113.0.0.0 Safari/537.36" etag="oYoyp29x2Prk-RhqoJUs" version="21.3.5">
  <diagram name="Page-1" id="RBVp6nrrJXHsKnD0qBYQ">
    <mxGraphModel dx="1400" dy="780" grid="1" gridSize="10" guides="1" tooltips="1" connect="1" arrows="1" fold="1" page="1" pageScale="1" pageWidth="827" pageHeight="1169" math="0" shadow="0">
      <root>
        <mxCell id="0" />
        <mxCell id="1" parent="0" />
        <mxCell id="WqLMy82CMgslUAlCQcMg-13" style="edgeStyle=orthogonalEdgeStyle;rounded=0;orthogonalLoop=1;jettySize=auto;html=1;entryX=0;entryY=0.5;entryDx=0;entryDy=0;" edge="1" parent="1" source="WqLMy82CMgslUAlCQcMg-1" target="WqLMy82CMgslUAlCQcMg-9">
          <mxGeometry relative="1" as="geometry" />
        </mxCell>
        <mxCell id="WqLMy82CMgslUAlCQcMg-14" style="edgeStyle=orthogonalEdgeStyle;rounded=0;orthogonalLoop=1;jettySize=auto;html=1;entryX=0;entryY=0.75;entryDx=0;entryDy=0;" edge="1" parent="1" source="WqLMy82CMgslUAlCQcMg-1" target="WqLMy82CMgslUAlCQcMg-10">
          <mxGeometry relative="1" as="geometry" />
        </mxCell>
        <mxCell id="WqLMy82CMgslUAlCQcMg-1" value="User" style="shape=umlActor;verticalLabelPosition=bottom;verticalAlign=top;html=1;outlineConnect=0;" vertex="1" parent="1">
          <mxGeometry x="50" y="190" width="30" height="60" as="geometry" />
        </mxCell>
        <mxCell id="WqLMy82CMgslUAlCQcMg-4" value="User DB" style="shape=cylinder3;whiteSpace=wrap;html=1;boundedLbl=1;backgroundOutline=1;size=15;" vertex="1" parent="1">
          <mxGeometry x="200" y="10" width="60" height="80" as="geometry" />
        </mxCell>
        <mxCell id="WqLMy82CMgslUAlCQcMg-11" style="edgeStyle=orthogonalEdgeStyle;rounded=0;orthogonalLoop=1;jettySize=auto;html=1;entryX=0;entryY=0.5;entryDx=0;entryDy=0;entryPerimeter=0;" edge="1" parent="1" source="WqLMy82CMgslUAlCQcMg-9" target="WqLMy82CMgslUAlCQcMg-4">
          <mxGeometry relative="1" as="geometry" />
        </mxCell>
        <mxCell id="WqLMy82CMgslUAlCQcMg-12" style="edgeStyle=orthogonalEdgeStyle;rounded=0;orthogonalLoop=1;jettySize=auto;html=1;entryX=0.5;entryY=0;entryDx=0;entryDy=0;" edge="1" parent="1" source="WqLMy82CMgslUAlCQcMg-9" target="WqLMy82CMgslUAlCQcMg-10">
          <mxGeometry relative="1" as="geometry" />
        </mxCell>
        <mxCell id="WqLMy82CMgslUAlCQcMg-9" value="Register" style="rounded=1;whiteSpace=wrap;html=1;" vertex="1" parent="1">
          <mxGeometry x="130" y="140" width="120" height="60" as="geometry" />
        </mxCell>
        <mxCell id="WqLMy82CMgslUAlCQcMg-15" value="" style="edgeStyle=orthogonalEdgeStyle;rounded=0;orthogonalLoop=1;jettySize=auto;html=1;" edge="1" parent="1" source="WqLMy82CMgslUAlCQcMg-10" target="WqLMy82CMgslUAlCQcMg-9">
          <mxGeometry relative="1" as="geometry" />
        </mxCell>
        <mxCell id="WqLMy82CMgslUAlCQcMg-19" style="edgeStyle=orthogonalEdgeStyle;rounded=0;orthogonalLoop=1;jettySize=auto;html=1;entryX=0;entryY=0.5;entryDx=0;entryDy=0;" edge="1" parent="1" source="WqLMy82CMgslUAlCQcMg-10" target="WqLMy82CMgslUAlCQcMg-16">
          <mxGeometry relative="1" as="geometry" />
        </mxCell>
        <mxCell id="WqLMy82CMgslUAlCQcMg-20" style="edgeStyle=orthogonalEdgeStyle;rounded=0;orthogonalLoop=1;jettySize=auto;html=1;entryX=0;entryY=0.5;entryDx=0;entryDy=0;" edge="1" parent="1" source="WqLMy82CMgslUAlCQcMg-10" target="WqLMy82CMgslUAlCQcMg-17">
          <mxGeometry relative="1" as="geometry" />
        </mxCell>
        <mxCell id="WqLMy82CMgslUAlCQcMg-10" value="Login" style="rounded=1;whiteSpace=wrap;html=1;" vertex="1" parent="1">
          <mxGeometry x="130" y="240" width="120" height="60" as="geometry" />
        </mxCell>
        <mxCell id="WqLMy82CMgslUAlCQcMg-22" style="edgeStyle=orthogonalEdgeStyle;rounded=0;orthogonalLoop=1;jettySize=auto;html=1;" edge="1" parent="1" source="WqLMy82CMgslUAlCQcMg-16" target="WqLMy82CMgslUAlCQcMg-21">
          <mxGeometry relative="1" as="geometry" />
        </mxCell>
        <mxCell id="WqLMy82CMgslUAlCQcMg-16" value="View Available Slots" style="rounded=1;whiteSpace=wrap;html=1;" vertex="1" parent="1">
          <mxGeometry x="320" y="130" width="120" height="60" as="geometry" />
        </mxCell>
        <mxCell id="WqLMy82CMgslUAlCQcMg-29" style="edgeStyle=orthogonalEdgeStyle;rounded=0;orthogonalLoop=1;jettySize=auto;html=1;" edge="1" parent="1" source="WqLMy82CMgslUAlCQcMg-17">
          <mxGeometry relative="1" as="geometry">
            <mxPoint x="640" y="160" as="targetPoint" />
          </mxGeometry>
        </mxCell>
        <mxCell id="WqLMy82CMgslUAlCQcMg-17" value="Cancel Booking" style="rounded=1;whiteSpace=wrap;html=1;" vertex="1" parent="1">
          <mxGeometry x="320" y="260" width="120" height="60" as="geometry" />
        </mxCell>
        <mxCell id="WqLMy82CMgslUAlCQcMg-28" style="edgeStyle=orthogonalEdgeStyle;rounded=0;orthogonalLoop=1;jettySize=auto;html=1;entryX=0;entryY=0;entryDx=0;entryDy=27.5;entryPerimeter=0;" edge="1" parent="1" source="WqLMy82CMgslUAlCQcMg-21" target="WqLMy82CMgslUAlCQcMg-27">
          <mxGeometry relative="1" as="geometry" />
        </mxCell>
        <mxCell id="WqLMy82CMgslUAlCQcMg-30" style="edgeStyle=orthogonalEdgeStyle;rounded=0;orthogonalLoop=1;jettySize=auto;html=1;entryX=0.5;entryY=0;entryDx=0;entryDy=0;" edge="1" parent="1" source="WqLMy82CMgslUAlCQcMg-21" target="WqLMy82CMgslUAlCQcMg-23">
          <mxGeometry relative="1" as="geometry" />
        </mxCell>
        <mxCell id="WqLMy82CMgslUAlCQcMg-21" value="Book Vaccination Centre Slots" style="rounded=1;whiteSpace=wrap;html=1;" vertex="1" parent="1">
          <mxGeometry x="500" y="130" width="120" height="60" as="geometry" />
        </mxCell>
        <mxCell id="WqLMy82CMgslUAlCQcMg-23" value="Booking" style="swimlane;fontStyle=0;childLayout=stackLayout;horizontal=1;startSize=30;horizontalStack=0;resizeParent=1;resizeParentMax=0;resizeLast=0;collapsible=1;marginBottom=0;whiteSpace=wrap;html=1;" vertex="1" parent="1">
          <mxGeometry x="670" y="220" width="140" height="120" as="geometry" />
        </mxCell>
        <mxCell id="WqLMy82CMgslUAlCQcMg-24" value="Name" style="text;strokeColor=none;fillColor=none;align=left;verticalAlign=middle;spacingLeft=4;spacingRight=4;overflow=hidden;points=[[0,0.5],[1,0.5]];portConstraint=eastwest;rotatable=0;whiteSpace=wrap;html=1;" vertex="1" parent="WqLMy82CMgslUAlCQcMg-23">
          <mxGeometry y="30" width="140" height="30" as="geometry" />
        </mxCell>
        <mxCell id="WqLMy82CMgslUAlCQcMg-25" value="Vaccine Type" style="text;strokeColor=none;fillColor=none;align=left;verticalAlign=middle;spacingLeft=4;spacingRight=4;overflow=hidden;points=[[0,0.5],[1,0.5]];portConstraint=eastwest;rotatable=0;whiteSpace=wrap;html=1;" vertex="1" parent="WqLMy82CMgslUAlCQcMg-23">
          <mxGeometry y="60" width="140" height="30" as="geometry" />
        </mxCell>
        <mxCell id="WqLMy82CMgslUAlCQcMg-26" value="Date and Time" style="text;strokeColor=none;fillColor=none;align=left;verticalAlign=middle;spacingLeft=4;spacingRight=4;overflow=hidden;points=[[0,0.5],[1,0.5]];portConstraint=eastwest;rotatable=0;whiteSpace=wrap;html=1;" vertex="1" parent="WqLMy82CMgslUAlCQcMg-23">
          <mxGeometry y="90" width="140" height="30" as="geometry" />
        </mxCell>
        <mxCell id="WqLMy82CMgslUAlCQcMg-27" value="Booking DB" style="shape=cylinder3;whiteSpace=wrap;html=1;boundedLbl=1;backgroundOutline=1;size=15;" vertex="1" parent="1">
          <mxGeometry x="690" y="30" width="60" height="80" as="geometry" />
        </mxCell>
        <mxCell id="WqLMy82CMgslUAlCQcMg-31" value="Happy Path For Vaccination Centre Booking" style="text;html=1;strokeColor=none;fillColor=none;align=center;verticalAlign=middle;whiteSpace=wrap;rounded=0;fontSize=19;" vertex="1" parent="1">
          <mxGeometry x="310" y="35" width="270" height="30" as="geometry" />
        </mxCell>
        <mxCell id="WqLMy82CMgslUAlCQcMg-33" style="edgeStyle=orthogonalEdgeStyle;rounded=0;orthogonalLoop=1;jettySize=auto;html=1;" edge="1" parent="1" source="WqLMy82CMgslUAlCQcMg-32" target="WqLMy82CMgslUAlCQcMg-21">
          <mxGeometry relative="1" as="geometry" />
        </mxCell>
        <mxCell id="WqLMy82CMgslUAlCQcMg-32" value="Vaccination DB" style="shape=cylinder3;whiteSpace=wrap;html=1;boundedLbl=1;backgroundOutline=1;size=15;" vertex="1" parent="1">
          <mxGeometry x="530" y="200" width="60" height="80" as="geometry" />
        </mxCell>
        <mxCell id="WqLMy82CMgslUAlCQcMg-35" style="edgeStyle=orthogonalEdgeStyle;rounded=0;orthogonalLoop=1;jettySize=auto;html=1;entryX=0;entryY=0.5;entryDx=0;entryDy=0;" edge="1" parent="1" target="WqLMy82CMgslUAlCQcMg-40">
          <mxGeometry relative="1" as="geometry">
            <mxPoint x="190" y="710" as="sourcePoint" />
          </mxGeometry>
        </mxCell>
        <mxCell id="WqLMy82CMgslUAlCQcMg-36" style="edgeStyle=orthogonalEdgeStyle;rounded=0;orthogonalLoop=1;jettySize=auto;html=1;entryX=0;entryY=0.75;entryDx=0;entryDy=0;" edge="1" parent="1" target="WqLMy82CMgslUAlCQcMg-42">
          <mxGeometry relative="1" as="geometry">
            <mxPoint x="190" y="710" as="sourcePoint" />
          </mxGeometry>
        </mxCell>
        <mxCell id="WqLMy82CMgslUAlCQcMg-37" value="User DB" style="shape=cylinder3;whiteSpace=wrap;html=1;boundedLbl=1;backgroundOutline=1;size=15;" vertex="1" parent="1">
          <mxGeometry x="310" y="500" width="60" height="80" as="geometry" />
        </mxCell>
        <mxCell id="WqLMy82CMgslUAlCQcMg-38" style="edgeStyle=orthogonalEdgeStyle;rounded=0;orthogonalLoop=1;jettySize=auto;html=1;entryX=0;entryY=0.5;entryDx=0;entryDy=0;entryPerimeter=0;" edge="1" parent="1" source="WqLMy82CMgslUAlCQcMg-40" target="WqLMy82CMgslUAlCQcMg-37">
          <mxGeometry relative="1" as="geometry" />
        </mxCell>
        <mxCell id="WqLMy82CMgslUAlCQcMg-39" style="edgeStyle=orthogonalEdgeStyle;rounded=0;orthogonalLoop=1;jettySize=auto;html=1;entryX=0.5;entryY=0;entryDx=0;entryDy=0;" edge="1" parent="1" source="WqLMy82CMgslUAlCQcMg-40" target="WqLMy82CMgslUAlCQcMg-42">
          <mxGeometry relative="1" as="geometry" />
        </mxCell>
        <mxCell id="WqLMy82CMgslUAlCQcMg-40" value="Register" style="rounded=1;whiteSpace=wrap;html=1;" vertex="1" parent="1">
          <mxGeometry x="240" y="630" width="120" height="60" as="geometry" />
        </mxCell>
        <mxCell id="WqLMy82CMgslUAlCQcMg-41" value="" style="edgeStyle=orthogonalEdgeStyle;rounded=0;orthogonalLoop=1;jettySize=auto;html=1;" edge="1" parent="1" source="WqLMy82CMgslUAlCQcMg-42" target="WqLMy82CMgslUAlCQcMg-40">
          <mxGeometry relative="1" as="geometry" />
        </mxCell>
        <mxCell id="WqLMy82CMgslUAlCQcMg-46" style="edgeStyle=orthogonalEdgeStyle;rounded=0;orthogonalLoop=1;jettySize=auto;html=1;entryX=0;entryY=0.5;entryDx=0;entryDy=0;" edge="1" parent="1" source="WqLMy82CMgslUAlCQcMg-42" target="WqLMy82CMgslUAlCQcMg-44">
          <mxGeometry relative="1" as="geometry" />
        </mxCell>
        <mxCell id="WqLMy82CMgslUAlCQcMg-47" style="edgeStyle=orthogonalEdgeStyle;rounded=0;orthogonalLoop=1;jettySize=auto;html=1;entryX=0;entryY=0.5;entryDx=0;entryDy=0;" edge="1" parent="1" source="WqLMy82CMgslUAlCQcMg-42" target="WqLMy82CMgslUAlCQcMg-45">
          <mxGeometry relative="1" as="geometry" />
        </mxCell>
        <mxCell id="WqLMy82CMgslUAlCQcMg-42" value="Login" style="rounded=1;whiteSpace=wrap;html=1;" vertex="1" parent="1">
          <mxGeometry x="240" y="730" width="120" height="60" as="geometry" />
        </mxCell>
        <mxCell id="WqLMy82CMgslUAlCQcMg-43" value="Admin" style="shape=umlActor;verticalLabelPosition=bottom;verticalAlign=top;html=1;outlineConnect=0;" vertex="1" parent="1">
          <mxGeometry x="150" y="680" width="30" height="60" as="geometry" />
        </mxCell>
        <mxCell id="WqLMy82CMgslUAlCQcMg-49" style="edgeStyle=orthogonalEdgeStyle;rounded=0;orthogonalLoop=1;jettySize=auto;html=1;entryX=0.5;entryY=1;entryDx=0;entryDy=0;entryPerimeter=0;" edge="1" parent="1" source="WqLMy82CMgslUAlCQcMg-44" target="WqLMy82CMgslUAlCQcMg-48">
          <mxGeometry relative="1" as="geometry" />
        </mxCell>
        <mxCell id="WqLMy82CMgslUAlCQcMg-44" value="Add new Vaccination Center" style="rounded=1;whiteSpace=wrap;html=1;" vertex="1" parent="1">
          <mxGeometry x="444" y="600" width="120" height="60" as="geometry" />
        </mxCell>
        <mxCell id="WqLMy82CMgslUAlCQcMg-50" style="edgeStyle=orthogonalEdgeStyle;rounded=0;orthogonalLoop=1;jettySize=auto;html=1;entryX=1;entryY=0.5;entryDx=0;entryDy=0;entryPerimeter=0;" edge="1" parent="1" source="WqLMy82CMgslUAlCQcMg-45" target="WqLMy82CMgslUAlCQcMg-48">
          <mxGeometry relative="1" as="geometry">
            <Array as="points">
              <mxPoint x="580" y="760" />
              <mxPoint x="580" y="540" />
            </Array>
          </mxGeometry>
        </mxCell>
        <mxCell id="WqLMy82CMgslUAlCQcMg-45" value="View All Vaccination Centres and Update" style="rounded=1;whiteSpace=wrap;html=1;" vertex="1" parent="1">
          <mxGeometry x="444" y="730" width="120" height="60" as="geometry" />
        </mxCell>
        <mxCell id="WqLMy82CMgslUAlCQcMg-48" value="Vaccination DB" style="shape=cylinder3;whiteSpace=wrap;html=1;boundedLbl=1;backgroundOutline=1;size=15;" vertex="1" parent="1">
          <mxGeometry x="480" y="500" width="60" height="80" as="geometry" />
        </mxCell>
        <mxCell id="WqLMy82CMgslUAlCQcMg-51" value="Happy Path for Admin" style="text;html=1;strokeColor=none;fillColor=none;align=center;verticalAlign=middle;whiteSpace=wrap;rounded=0;fontSize=19;" vertex="1" parent="1">
          <mxGeometry x="294" y="450" width="270" height="30" as="geometry" />
        </mxCell>
      </root>
    </mxGraphModel>
  </diagram>
</mxfile>
